<?xml version="1.0" encoding="iso-8859-1"?>
<!-- Generator: Adobe Illustrator 19.0.0, SVG Export Plug-In . SVG Version: 6.00 Build 0)  -->
<svg version="1.1" id="Capa_1" xmlns="http://www.w3.org/2000/svg" xmlns:xlink="http://www.w3.org/1999/xlink" x="0px" y="0px"
	 viewBox="0 0 426.658 426.658" style="enable-background:new 0 0 426.658 426.658;" xml:space="preserve">
<rect x="76.962" y="17.783" style="fill:#E56353;" width="268.403" height="398.08"/>
<rect x="127.462" y="337.152" style="fill:#D5D6DB;" width="165.44" height="78.711"/>
<rect x="200.35" y="332.885" style="fill:#E56353;" width="19.669" height="83.008"/>
<rect x="273.485" y="41.382" style="fill:#D5D6DB;" width="32.171" height="44.322"/>
<polygon style="fill:#EBF0F3;" points="273.469,85.707 273.469,41.384 305.64,41.384 "/>
<rect x="273.485" y="97.852" style="fill:#D5D6DB;" width="32.171" height="44.322"/>
<polygon style="fill:#EBF0F3;" points="273.469,142.174 273.469,97.851 305.64,97.851 "/>
<rect x="273.485" y="154.325" style="fill:#D5D6DB;" width="32.171" height="44.322"/>
<polygon style="fill:#EBF0F3;" points="273.469,198.64 273.469,154.317 305.64,154.317 "/>
<rect x="273.485" y="210.773" style="fill:#D5D6DB;" width="32.171" height="44.322"/>
<polygon style="fill:#EBF0F3;" points="273.469,255.107 273.469,210.784 305.64,210.784 "/>
<rect x="273.485" y="267.264" style="fill:#D5D6DB;" width="32.171" height="44.322"/>
<polygon style="fill:#EBF0F3;" points="273.469,311.573 273.469,267.25 305.64,267.25 "/>
<rect x="221.197" y="41.382" style="fill:#D5D6DB;" width="32.171" height="44.322"/>
<polygon style="fill:#EBF0F3;" points="221.197,85.707 221.197,41.384 253.368,41.384 "/>
<rect x="221.197" y="97.852" style="fill:#D5D6DB;" width="32.171" height="44.322"/>
<polygon style="fill:#EBF0F3;" points="221.197,142.174 221.197,97.851 253.368,97.851 "/>
<rect x="221.197" y="154.325" style="fill:#D5D6DB;" width="32.171" height="44.322"/>
<polygon style="fill:#EBF0F3;" points="221.197,198.64 221.197,154.317 253.368,154.317 "/>
<rect x="221.197" y="210.773" style="fill:#D5D6DB;" width="32.171" height="44.322"/>
<polygon style="fill:#EBF0F3;" points="221.197,255.107 221.197,210.784 253.368,210.784 "/>
<rect x="221.197" y="267.264" style="fill:#D5D6DB;" width="32.171" height="44.322"/>
<polygon style="fill:#EBF0F3;" points="221.197,311.573 221.197,267.25 253.368,267.25 "/>
<rect x="168.926" y="41.382" style="fill:#D5D6DB;" width="32.171" height="44.322"/>
<polygon style="fill:#EBF0F3;" points="168.925,85.707 168.925,41.384 201.096,41.384 "/>
<rect x="168.926" y="97.852" style="fill:#D5D6DB;" width="32.171" height="44.322"/>
<polygon style="fill:#EBF0F3;" points="168.925,142.174 168.925,97.851 201.096,97.851 "/>
<rect x="168.926" y="154.325" style="fill:#D5D6DB;" width="32.171" height="44.322"/>
<polygon style="fill:#EBF0F3;" points="168.925,198.64 168.925,154.317 201.096,154.317 "/>
<rect x="168.926" y="210.773" style="fill:#D5D6DB;" width="32.171" height="44.322"/>
<polygon style="fill:#EBF0F3;" points="168.925,255.107 168.925,210.784 201.096,210.784 "/>
<rect x="168.926" y="267.264" style="fill:#D5D6DB;" width="32.171" height="44.322"/>
<polygon style="fill:#EBF0F3;" points="168.925,311.573 168.925,267.25 201.096,267.25 "/>
<rect x="116.642" y="41.382" style="fill:#D5D6DB;" width="32.171" height="44.322"/>
<polygon style="fill:#EBF0F3;" points="116.652,85.707 116.652,41.384 148.824,41.384 "/>
<rect x="116.642" y="97.852" style="fill:#D5D6DB;" width="32.171" height="44.322"/>
<polygon style="fill:#EBF0F3;" points="116.653,142.174 116.653,97.851 148.824,97.851 "/>
<rect x="116.642" y="154.325" style="fill:#D5D6DB;" width="32.171" height="44.322"/>
<polygon style="fill:#EBF0F3;" points="116.653,198.64 116.653,154.317 148.824,154.317 "/>
<rect x="116.642" y="210.773" style="fill:#D5D6DB;" width="32.171" height="44.322"/>
<polygon style="fill:#EBF0F3;" points="116.653,255.107 116.653,210.784 148.824,210.784 "/>
<rect x="116.642" y="267.264" style="fill:#D5D6DB;" width="32.171" height="44.322"/>
<polygon style="fill:#EBF0F3;" points="116.653,311.573 116.653,267.25 148.824,267.25 "/>
<g>
	<rect x="23.078" style="fill:#E56353;" width="380.501" height="23.104"/>
	<rect x="63.292" y="415.872" style="fill:#E56353;" width="293.777" height="10.786"/>
</g>
<g>
</g>
<g>
</g>
<g>
</g>
<g>
</g>
<g>
</g>
<g>
</g>
<g>
</g>
<g>
</g>
<g>
</g>
<g>
</g>
<g>
</g>
<g>
</g>
<g>
</g>
<g>
</g>
<g>
</g>
</svg>
