<?xml version="1.0" encoding="utf-8"?>
<!-- Generator: Adobe Illustrator 21.0.0, SVG Export Plug-In . SVG Version: 6.00 Build 0)  -->
<svg version="1.1" id="Layer_1" xmlns="http://www.w3.org/2000/svg" xmlns:xlink="http://www.w3.org/1999/xlink" x="0px" y="0px"
	 viewBox="0 0 483 385.7" style="enable-background:new 0 0 483 385.7;" xml:space="preserve">
<style type="text/css">
	.st0{fill:#B2C6FD;stroke:#B2C6FD;stroke-width:3;stroke-miterlimit:10;}
	.st1{fill:none;stroke:#FFFFFF;stroke-width:12;stroke-miterlimit:10;}
	.st2{fill:#FFFFFF;}
</style>
<g id="Background">
</g>
<g id="Text">
</g>
<g id="Logo">
	<path class="st0" d="M412.7,1.5c-36.5,0-66,29.5-66,66c0,8.9,1.8,17.4,5,25.2l62-29.2v70c36-0.5,65-29.9,65-66
		C478.7,31,449.2,1.5,412.7,1.5z"/>
	<polyline class="st1" points="28.7,265.2 69.7,265.2 69.7,81.5 185.7,81.5 185.7,265.2 148.7,265.2 148.7,25.5 280.7,25.5 
		280.7,265.5 244.7,265.5 244.7,125.5 350.7,173.5 350.7,265.5 313.7,265.5 313.7,110.5 413.7,63.5 413.7,265.5 454.8,265.5 	"/>
	<path class="st2" d="M471,269.9c-1.3-1.3-2-2.9-2-4.7c0-1.9,0.7-3.5,2-4.8s3-2,5-2s3.7,0.6,5,1.9c1.3,1.3,2,2.8,2,4.7
		s-0.7,3.6-2,4.9c-1.3,1.3-3,2-5,2C474,271.8,472.3,271.2,471,269.9z"/>
	<path class="st2" d="M2,269.9c-1.3-1.3-2-2.9-2-4.7c0-1.9,0.7-3.5,2-4.8s3-2,5-2s3.7,0.6,5,1.9c1.3,1.3,2,2.8,2,4.7s-0.7,3.6-2,4.9
		c-1.3,1.3-3,2-5,2C5,271.8,3.3,271.2,2,269.9z"/>
	<g>
		<path class="st2" d="M128.7,334.4c4,2.2,7.1,5.3,9.4,9.3s3.4,8.6,3.4,13.8s-1.1,9.8-3.4,13.9c-2.3,4-5.4,7.1-9.4,9.4
			c-4,2.2-8.5,3.3-13.5,3.3c-3.9,0-7.4-0.8-10.6-2.3s-5.8-3.7-7.9-6.6v8.2h-9v-72.7h9.4v28.6c2.1-2.7,4.7-4.8,7.8-6.2
			c3.1-1.4,6.6-2.1,10.3-2.1C120.2,331.1,124.7,332.2,128.7,334.4z M123.4,373.6c2.6-1.5,4.7-3.7,6.3-6.5c1.5-2.8,2.3-6,2.3-9.6
			s-0.8-6.8-2.3-9.6s-3.6-4.9-6.3-6.4c-2.6-1.5-5.6-2.3-9-2.3c-3.3,0-6.2,0.8-8.9,2.3c-2.7,1.5-4.8,3.6-6.3,6.4
			c-1.5,2.8-2.3,6-2.3,9.6s0.8,6.8,2.3,9.6s3.6,4.9,6.3,6.5c2.7,1.5,5.7,2.3,8.9,2.3C117.7,375.9,120.7,375.1,123.4,373.6z"/>
		<path class="st2" d="M163.1,331.7h9.4v51.8h-9.4V331.7z"/>
		<path class="st2" d="M199.1,310.8h9.4v72.7h-9.4V310.8z"/>
		<path class="st2" d="M284,310.8v72.7h-9v-8.2c-2.1,2.9-4.7,5.1-7.9,6.6s-6.7,2.3-10.6,2.3c-5,0-9.5-1.1-13.5-3.3s-7.1-5.3-9.4-9.4
			c-2.3-4-3.4-8.6-3.4-13.9c0-5.2,1.1-9.8,3.4-13.8s5.4-7.1,9.4-9.3s8.5-3.3,13.5-3.3c3.7,0,7.2,0.7,10.3,2.1
			c3.1,1.4,5.7,3.5,7.8,6.2v-28.6L284,310.8L284,310.8z M266.2,373.6c2.7-1.5,4.8-3.7,6.3-6.5s2.3-6,2.3-9.6s-0.8-6.8-2.3-9.6
			s-3.6-4.9-6.3-6.4s-5.7-2.3-8.9-2.3c-3.3,0-6.3,0.8-9,2.3c-2.6,1.5-4.7,3.6-6.3,6.4c-1.5,2.8-2.3,6-2.3,9.6s0.8,6.8,2.3,9.6
			s3.6,4.9,6.3,6.5c2.6,1.5,5.6,2.3,9,2.3C260.5,375.9,263.5,375.1,266.2,373.6z"/>
		<path class="st0" d="M310.5,331.6h9.4v51.9h-9.4V331.6z"/>
		<path class="st0" d="M389.9,336.8c3.9,3.8,5.8,9.4,5.8,16.8v29.9h-9.4v-28.8c0-5-1.2-8.8-3.6-11.4c-2.4-2.5-5.9-3.8-10.4-3.8
			c-5.1,0-9.1,1.5-12.1,4.5c-2.9,3-4.4,7.2-4.4,12.8v26.7h-9.4v-51.9h9v7.8c1.9-2.7,4.5-4.7,7.7-6.2c3.2-1.4,6.9-2.2,11-2.2
			C380.8,331.1,386,333,389.9,336.8z"/>
	</g>
</g>
</svg>
