<?xml version="1.0" encoding="utf-8"?>
<!-- Generator: Adobe Illustrator 21.0.0, SVG Export Plug-In . SVG Version: 6.00 Build 0)  -->
<svg version="1.1" id="Layer_1" xmlns="http://www.w3.org/2000/svg" xmlns:xlink="http://www.w3.org/1999/xlink" x="0px" y="0px"
	 viewBox="0 0 1000 1000" style="enable-background:new 0 0 1000 1000;" xml:space="preserve">
<style type="text/css">
	.st0{fill:#B2C6FD;stroke:#B2C6FD;stroke-miterlimit:10;}
	.st1{fill:none;stroke:#FFFFFF;stroke-width:23.3717;stroke-miterlimit:10;}
	.st2{fill:#FFFFFF;}
</style>
<g id="Background">
</g>
<g id="Text">
</g>
<g id="Logo_6_">
	<path class="st0" d="M721.9,205.8c-64.3,0-116.1,51.8-116.1,116.1c0,15.6,3.1,30.7,8.9,44.4l108.9-51.6v123.1
		c63.3-1,114.4-52.5,114.4-116.1C838,257.6,786.2,205.8,721.9,205.8z"/>
	<polyline class="st1" points="397.3,716.6 397.3,438.5 607.9,533.7 607.9,716.6 	"/>
	<polyline class="st1" points="534.3,503.5 534.3,408.5 733.2,315.2 733.2,718.7 206.6,720.2 206.6,239.6 468.8,239.6 468.8,465.6 	
		"/>
</g>
<g>
	<path class="st2" d="M258.7,876.2l-0.1-46.3l-23,38.6h-4.2l-23-38.3v46.1h-8.7v-63.6h7.5l26.5,44.7l26.2-44.7h7.5l0.1,63.6H258.7z"
		/>
	<path class="st2" d="M286.5,812.6h9.1v63.6h-9.1V812.6z"/>
	<path class="st2" d="M385.3,868.3v7.9h-46.2v-63.6H384v7.9h-35.8V840h31.9v7.7h-31.9v20.5H385.3z"/>
	<path class="st2" d="M400,812.6h26.8c6.7,0,12.7,1.3,17.9,4c5.2,2.7,9.3,6.4,12.1,11.2c2.9,4.8,4.3,10.3,4.3,16.6
		c0,6.2-1.4,11.8-4.3,16.6c-2.9,4.8-6.9,8.6-12.1,11.2c-5.2,2.7-11.2,4-17.9,4H400V812.6z M426.3,868.3c5.1,0,9.7-1,13.6-3
		c3.9-2,6.9-4.8,9-8.4c2.1-3.6,3.2-7.8,3.2-12.5c0-4.7-1.1-8.9-3.2-12.5c-2.1-3.6-5.1-6.4-9-8.4c-3.9-2-8.4-3-13.6-3h-17.2v47.8
		H426.3z"/>
	<path class="st2" d="M475,812.6h9.1v63.6H475V812.6z"/>
	<path class="st2" d="M512.3,820.5v22.2h31.9v7.8h-31.9v25.7h-9.1v-63.6h44.9v7.9H512.3z"/>
	<path class="st2" d="M560.9,812.6h9.1v63.6h-9.1V812.6z"/>
	<path class="st2" d="M600.3,872.7c-5.1-2.8-9.1-6.7-12-11.6c-2.9-4.9-4.4-10.5-4.4-16.7c0-6.2,1.5-11.7,4.4-16.7
		c2.9-4.9,6.9-8.8,12.1-11.6c5.1-2.8,10.9-4.2,17.3-4.2c5,0,9.5,0.8,13.6,2.5c4.1,1.7,7.6,4.1,10.5,7.4l-5.9,5.7
		c-4.8-5-10.8-7.5-17.9-7.5c-4.7,0-9,1.1-12.8,3.2c-3.8,2.1-6.8,5-8.9,8.8c-2.2,3.7-3.2,7.9-3.2,12.5c0,4.6,1.1,8.8,3.2,12.5
		c2.1,3.7,5.1,6.6,8.9,8.8c3.8,2.1,8.1,3.2,12.8,3.2c7.1,0,13.1-2.5,17.9-7.6l5.9,5.7c-2.9,3.3-6.4,5.8-10.6,7.4
		c-4.1,1.7-8.7,2.5-13.7,2.5C611.1,876.9,605.4,875.5,600.3,872.7z"/>
	<path class="st2" d="M654.7,812.6h9.1v63.6h-9.1V812.6z"/>
	<path class="st2" d="M694.3,872.7c-5.1-2.8-9.2-6.7-12.1-11.7c-2.9-5-4.4-10.5-4.4-16.6c0-6.1,1.5-11.7,4.4-16.6
		c2.9-5,7-8.9,12.1-11.7c5.1-2.8,10.9-4.2,17.4-4.2c6.4,0,12.1,1.4,17.3,4.2c5.1,2.8,9.2,6.7,12.1,11.6c2.9,4.9,4.4,10.5,4.4,16.7
		c0,6.2-1.5,11.7-4.4,16.7c-2.9,4.9-6.9,8.8-12.1,11.6c-5.1,2.8-10.9,4.2-17.3,4.2C705.2,876.9,699.4,875.5,694.3,872.7z
		 M724.2,865.6c3.7-2.1,6.7-5,8.8-8.8c2.1-3.7,3.2-7.9,3.2-12.5c0-4.6-1.1-8.8-3.2-12.5c-2.2-3.7-5.1-6.6-8.8-8.8
		c-3.7-2.1-7.9-3.2-12.6-3.2c-4.7,0-8.9,1.1-12.7,3.2c-3.8,2.1-6.8,5-8.9,8.8c-2.2,3.7-3.2,7.9-3.2,12.5c0,4.6,1.1,8.8,3.2,12.5
		c2.1,3.7,5.1,6.6,8.9,8.8c3.8,2.1,8,3.2,12.7,3.2C716.3,868.8,720.5,867.7,724.2,865.6z"/>
</g>
</svg>
