<?xml version="1.0" encoding="utf-8"?>
<!-- Generator: Adobe Illustrator 21.0.0, SVG Export Plug-In . SVG Version: 6.00 Build 0)  -->
<svg version="1.1" id="Layer_1" xmlns="http://www.w3.org/2000/svg" xmlns:xlink="http://www.w3.org/1999/xlink" x="0px" y="0px"
	 viewBox="0 0 311 76.5" style="enable-background:new 0 0 311 76.5;" xml:space="preserve">
<style type="text/css">
	.st0{stroke:#252626;stroke-width:3;}
	.st1{fill:#B2C6FD;stroke:#B2C6FD;stroke-width:3;stroke-miterlimit:10;}
</style>
<g id="Background">
</g>
<g id="Text">
</g>
<g id="Logo">
	<g>
		<path class="st0" d="M42.5,25.2c4,2.2,7.1,5.3,9.4,9.3s3.4,8.6,3.4,13.8s-1.1,9.8-3.4,13.9c-2.3,4-5.4,7.1-9.4,9.4
			c-4,2.2-8.5,3.3-13.5,3.3c-3.9,0-7.4-0.8-10.6-2.3s-5.8-3.7-7.9-6.6v8.2h-9V1.5h9.4v28.6c2.1-2.7,4.7-4.8,7.8-6.2
			c3.1-1.4,6.6-2.1,10.3-2.1C34,21.9,38.5,23,42.5,25.2z M37.2,64.4c2.6-1.5,4.7-3.7,6.3-6.5c1.5-2.8,2.3-6,2.3-9.6
			s-0.8-6.8-2.3-9.6s-3.6-4.9-6.3-6.4c-2.6-1.5-5.6-2.3-9-2.3c-3.3,0-6.2,0.8-8.9,2.3c-2.7,1.5-4.8,3.6-6.3,6.4
			c-1.5,2.8-2.3,6-2.3,9.6s0.8,6.8,2.3,9.6s3.6,4.9,6.3,6.5c2.7,1.5,5.7,2.3,8.9,2.3C31.5,66.7,34.5,65.9,37.2,64.4z"/>
		<path class="st0" d="M76.9,22.5h9.4v51.8h-9.4V22.5z"/>
		<path class="st0" d="M112.9,1.6h9.4v72.7h-9.4V1.6z"/>
		<path class="st0" d="M197.8,1.6v72.7h-9v-8.2c-2.1,2.9-4.7,5.1-7.9,6.6s-6.7,2.3-10.6,2.3c-5,0-9.5-1.1-13.5-3.3s-7.1-5.3-9.4-9.4
			c-2.3-4-3.4-8.6-3.4-13.9c0-5.2,1.1-9.8,3.4-13.8s5.4-7.1,9.4-9.3s8.5-3.3,13.5-3.3c3.7,0,7.2,0.7,10.3,2.1
			c3.1,1.4,5.7,3.5,7.8,6.2V1.7L197.8,1.6L197.8,1.6z M180,64.4c2.7-1.5,4.8-3.7,6.3-6.5s2.3-6,2.3-9.6s-0.8-6.8-2.3-9.6
			s-3.6-4.9-6.3-6.4s-5.7-2.3-8.9-2.3c-3.3,0-6.3,0.8-9,2.3c-2.6,1.5-4.7,3.6-6.3,6.4c-1.5,2.8-2.3,6-2.3,9.6s0.8,6.8,2.3,9.6
			s3.6,4.9,6.3,6.5c2.6,1.5,5.6,2.3,9,2.3C174.3,66.7,177.3,65.9,180,64.4z"/>
		<path class="st1" d="M224.3,22.4h9.4v51.9h-9.4V22.4z"/>
		<path class="st1" d="M303.7,27.6c3.9,3.8,5.8,9.4,5.8,16.8v29.9h-9.4V45.5c0-5-1.2-8.8-3.6-11.4c-2.4-2.5-5.9-3.8-10.4-3.8
			c-5.1,0-9.1,1.5-12.1,4.5c-2.9,3-4.4,7.2-4.4,12.8v26.7h-9.4V22.4h9v7.8c1.9-2.7,4.5-4.7,7.7-6.2c3.2-1.4,6.9-2.2,11-2.2
			C294.6,21.9,299.8,23.8,303.7,27.6z"/>
	</g>
</g>
</svg>
