<?xml version="1.0" encoding="utf-8"?>
<!-- Generator: Adobe Illustrator 21.0.0, SVG Export Plug-In . SVG Version: 6.00 Build 0)  -->
<svg version="1.1" id="Capa_1" xmlns="http://www.w3.org/2000/svg" xmlns:xlink="http://www.w3.org/1999/xlink" x="0px" y="0px"
	 viewBox="0 0 445.3 402.7" style="enable-background:new 0 0 445.3 402.7;" xml:space="preserve">
<style type="text/css">
	.st0{fill:#FFFFFF;stroke:#000000;stroke-miterlimit:10;}
	.st1{fill:#1E1E1E;}
	.st2{fill:#72A8FE;}
	.st3{stroke:#000000;stroke-width:3.3411;stroke-miterlimit:10;}
	.st4{enable-background:new    ;}
	.st5{fill:#FFFFFF;}
</style>
<path class="st1" d="M97.6,123.7c-20,0-36.5,16.4-36.5,36.4v84.6c0,20,16.5,36,36.5,36h106l33,30.2c1.4,1.3,3.2,2,5.1,2
	c1,0,2-0.2,3-0.6c2.7-1.2,4.4-3.9,4.4-6.8V217c0-4.2-3.4-7.5-7.5-7.5c-4.2,0-7.5,3.4-7.5,7.5v71.4l-22.5-20.7
	c-1.4-1.3-3.1-2.1-5-2.1h-109c-11.7,0-21.5-9.2-21.5-21V160c0-11.7,9.7-21.4,21.5-21.4h78.8v-15H97.6V123.7z"/>
<path class="st2" d="M189.5,49.6l111.1-30.5c19.3-5.3,39.6,5.8,44.9,25.1l11.5,42l1.9,7l4,14.5l2,7.2l19.1,69.6
	c0.8,2.9-0.3,6-2.7,7.9c-2.3,1.9-5.6,2.2-8.2,0.9l-33.3-16.9c-0.9-0.4-1.7-0.8-2.4-1.2c-1.8-0.9-3.7-1.9-4.4-2.1
	c-0.6,0.1-2.1,0.5-3.4,0.9s-2.8,0.8-4.6,1.3l-94,25.8c-19.3,5.3-39.1-6.1-44.4-25.4L164.3,94C159,74.7,170.2,54.9,189.5,49.6z"/>
<g>
	<path id="Shape_1_" d="M142.2,217.9c-2.2,0.7-3.4,3-2.6,5.2c2.1,6.5-1.4,13.5-7.9,15.6s-13.5-1.4-15.6-7.9c-0.7-2.2-3-3.4-5.2-2.6
		c-2.2,0.7-3.4,3-2.6,5.2c3.5,10.8,15.2,16.8,26,13.2c10.8-3.5,16.8-15.2,13.2-26c-0.3-1-1.1-1.9-2.1-2.4
		C144.3,217.7,143.2,217.6,142.2,217.9z"/>
	<path id="Shape_7_" d="M147.4,220.6c-0.7-2.2-3-3.4-5.2-2.6l-31.4,10.2c-2.2,0.7-3.4,3-2.6,5.2c0.7,2.2,3,3.4,5.2,2.6l31.4-10.2
		C146.9,225.1,148.1,222.8,147.4,220.6z"/>
	<path id="Shape_2_" class="st3" d="M91.3,222.9c1.2-0.4,1.8-1.6,1.4-2.8c-1.1-3.5,0.8-7.2,4.2-8.3c3.5-1.1,7.2,0.8,8.3,4.2
		c0.4,1.2,1.6,1.8,2.8,1.4c1.2-0.4,1.8-1.6,1.4-2.8c-1.9-5.8-8.1-8.9-13.9-7.1c-5.8,1.9-8.9,8.1-7.1,13.9c0.2,0.6,0.6,1,1.1,1.3
		C90.2,223,90.8,223.1,91.3,222.9z"/>
	<path id="Shape_6_" class="st3" d="M133.9,208.7c1.2-0.4,1.8-1.6,1.4-2.8c-1.1-3.5,0.8-7.2,4.2-8.3c3.5-1.1,7.2,0.8,8.3,4.2
		c0.4,1.2,1.6,1.8,2.8,1.4c1.2-0.4,1.8-1.6,1.4-2.8c-1.9-5.8-8.1-8.9-13.9-7.1c-5.8,1.9-8.9,8.1-7.1,13.9c0.2,0.6,0.6,1,1.1,1.3
		C132.8,208.8,133.4,208.9,133.9,208.7z"/>
</g>
<g class="st4">
	<path d="M128.8,359.9c0-7.5,5.7-12.2,12.4-12.2c3.4,0,6.3,1.3,8.5,3.2l-2,2.2c-1.6-1.5-3.8-2.4-6.3-2.4c-5.1,0-9.3,3.6-9.3,9.2
		c0,5.5,4.2,9.2,9.3,9.2c2.5,0,4.7-0.9,6.3-2.3l2,2.2c-2.1,2-5.1,3.2-8.5,3.2C134.5,372.2,128.8,367.4,128.8,359.9z"/>
	<path d="M176.6,358v13.7h-3.2v-13.5c0-4.5-2.9-7.3-6.6-7.3c-3.8,0-7.8,2.1-7.9,7.8v13h-3.2v-36.8h3.2v17.5c1.4-3.4,5.2-4.7,8.2-4.7
		C172.7,347.7,176.6,351.5,176.6,358z"/>
	<path d="M207.2,348.2v23.5H204v-4.6c-1.8,3.2-5.4,5.1-9.4,5.1c-6.5,0-11.9-5.1-11.9-12.3s5.3-12.2,11.9-12.2c4,0,7.6,1.9,9.4,5
		v-4.5H207.2z M204,360c0-5.7-4.4-9.3-9.1-9.3c-4.9,0-9,3.9-9,9.1c0,5.2,4,9.3,9,9.3C199.7,369.1,204,365.5,204,360z"/>
	<path d="M225.4,351H220v20.7h-3.2V351h-4.3v-2.8h4.3v-9.4h3.2v9.4h5.4V351z"/>
	<path d="M251.7,361.3h-20.2c0.6,5,4.1,7.9,8.8,7.9c3.2,0,6.1-1.5,7.7-4l2.8,1.2c-2.1,3.8-6.1,5.9-10.5,5.9c-6.6,0-12-4.9-12-12.3
		s5.3-12.2,12-12.2c6.7,0,11.6,4.7,11.6,12.2C251.8,360.3,251.8,360.8,251.7,361.3z M248.6,358.5c-0.5-4.9-3.8-7.8-8.4-7.8
		c-4.6,0-8.1,2.7-8.7,7.8H248.6z"/>
</g>
<g>
	<path class="st2" d="M271.4,365.6h-9.5l-2,6.1h-5.5l9.5-25.5h5.5l9.5,25.5h-5.4L271.4,365.6z M269.9,361.1l-3.3-9.6l-3.2,9.6H269.9
		z"/>
	<path class="st2" d="M288.7,362.6H287v9.1h-5.1v-25.5H292c5.8,0,8.4,4.1,8.4,8.3c0,3.6-1.9,6.9-6.2,7.8l6.6,9.4h-6L288.7,362.6z
		 M287,358.4h4.1c2.9,0,4.1-1.7,4.1-3.8s-1.3-3.9-3.7-3.9H287V358.4z"/>
</g>
<path class="st5" d="M180.3,92l22.6,79.1c3.1,11,14.4,17.4,25.4,14.2l91.1-26c1.7-0.5,3-0.9,4.2-1.2c8.4-2.6,10.3-2.1,18.4,2
	c0.7,0.3,1.6,0.7,2.4,1.1l17.8,8.7l-18.7-65.5l-15.6-54.5c-3.1-11-14.9-17.1-25.8-13.9L194.4,66.7C183.4,69.8,177.2,81,180.3,92
	L180.3,92z"/>
<g>
	<path id="Shape_3_" d="M206.3,127.9c-2.2,0.6-3.5,2.9-2.8,5.1l1.1,4c0.6,2.2,2.9,3.5,5.1,2.8c2.2-0.6,3.5-2.9,2.8-5.1l-1.1-4
		C210.8,128.6,208.5,127.3,206.3,127.9z"/>
	<path id="Shape_4_" d="M261.8,112c-2.2,0.6-3.5,2.9-2.8,5.1l1.1,4c0.6,2.2,2.9,3.5,5.1,2.8c2.2-0.6,3.5-2.9,2.8-5.1l-1.1-4
		C266.3,112.6,264,111.3,261.8,112z"/>
	<path id="Shape_5_" d="M255.6,135.2c-2.2,0.6-3.5,2.9-2.8,5.1c1.9,6.6-1.9,13.4-8.5,15.3c-6.6,1.9-13.4-1.9-15.3-8.5
		c-0.6-2.2-2.9-3.5-5.1-2.8c-2.2,0.6-3.5,2.9-2.8,5.1c3.1,10.9,14.6,17.3,25.5,14.1c10.9-3.2,17.3-14.6,14.1-25.5
		c-0.3-1.1-1-1.9-2-2.5C257.8,135,256.6,134.9,255.6,135.2z"/>
</g>
</svg>
